<?xml version="1.0" encoding="utf-8"?>
<!-- Generator: Adobe Illustrator 16.0.3, SVG Export Plug-In . SVG Version: 6.00 Build 0)  -->
<!DOCTYPE svg PUBLIC "-//W3C//DTD SVG 1.1//EN" "http://www.w3.org/Graphics/SVG/1.1/DTD/svg11.dtd">
<svg version="1.1"
	 id="logo_small" xmlns:inkscape="http://www.inkscape.org/namespaces/inkscape" xmlns:sodipodi="http://sodipodi.sourceforge.net/DTD/sodipodi-0.dtd" xmlns:svg="http://www.w3.org/2000/svg" xmlns:rdf="http://www.w3.org/1999/02/22-rdf-syntax-ns#" xmlns:cc="http://creativecommons.org/ns#" xmlns:dc="http://purl.org/dc/elements/1.1/" inkscape:version="0.91 r13725" sodipodi:docname="vrba-logo-klein.svg"
	 xmlns="http://www.w3.org/2000/svg" xmlns:xlink="http://www.w3.org/1999/xlink" x="0px" y="0px" width="135px" height="40px"
	 viewBox="0 0 135 40" enable-background="new 0 0 135 40" xml:space="preserve">
<sodipodi:namedview  id="namedview18" objecttolerance="10" bordercolor="#666666" borderopacity="1" pagecolor="#ffffff" gridtolerance="10" guidetolerance="10" showgrid="false" inkscape:zoom="2.5925926" inkscape:cx="4.6285716" inkscape:cy="20" inkscape:current-layer="g4172" inkscape:window-maximized="1" inkscape:window-y="-8" inkscape:window-x="-8" inkscape:window-height="1057" inkscape:window-width="1920" inkscape:pageopacity="0" inkscape:pageshadow="2">
	</sodipodi:namedview>
<path fill="#00775E" stroke="#00765F" d="M13.47,24.283h9.752l10.507-8.15h-9.113l-5.197,4.363c-0.414,0.35-0.753,0.72-1.055,1.103
	c-0.301-0.381-0.64-0.753-1.054-1.103l-5.198-4.363H2.961L13.47,24.283"/>
<path fill="#00775E" stroke="#00765F" d="M37.956,24.283h8.699v-3.032h9.038v3.032h8.624v-2.762c0-0.72-0.564-1.067-3.314-1.352
	c2.524-0.251,3.314-0.601,3.314-1.342v-1.036c0-1.146-2.071-1.659-6.627-1.659H37.956L37.956,24.283"/>
<polyline fill="none" stroke="#00765F" points="46.655,19.395 46.655,18.337 55.655,18.337 55.655,19.395 46.655,19.395 "/>
<path fill="#00775E" stroke="#00765F" d="M69.986,24.283h21.201c4.331,0,5.951-0.612,5.951-1.832v-1.146
	c0-0.678-0.378-1.037-2.373-1.255c1.617-0.35,2.373-0.579,2.373-1.156v-1.146c0-1.135-1.771-1.615-5.876-1.615H69.986V24.283"/>
<polyline fill="none" stroke="#00765F" points="78.723,22.058 78.723,20.998 88.438,20.998 88.438,22.058 78.723,22.058 "/>
<polyline fill="none" stroke="#00765F" points="78.723,19.352 78.723,18.337 88.438,18.337 88.438,19.352 78.723,19.352 "/>
<path fill="#00775E" stroke="#00765F" d="M102.563,17.813v6.471h8.736v-3.285h9.604v3.285h8.774v-6.471
	c0-1.015-2.261-1.68-6.29-1.68h-14.536C104.823,16.133,102.563,16.799,102.563,17.813"/>
<polyline fill="none" stroke="#00765F" points="111.3,19.352 111.3,18.337 120.903,18.337 120.903,19.352 111.3,19.352 "/>
<path fill="none" stroke="#1D1D1B" d="M55.221,23.955v0.328c0,0.161,0.088,0.305,0.222,0.383l2.89,2.224
	c0.08,0.062,0.182,0.1,0.293,0.1h8.624c0.258,0,0.469-0.203,0.469-0.45v-2.757c0.005-0.45-0.178-0.781-0.491-1.021l-0.524-0.4
	c0.086-0.035,0.167-0.074,0.254-0.117c0.209-0.106,0.367-0.233,0.511-0.412l0.012-0.013c0.167-0.226,0.245-0.465,0.238-0.74v-1.03
	c0-0.375-0.138-0.695-0.415-0.96c-0.056-0.053-0.113-0.101-0.174-0.146l-2.842-2.186c-0.122-0.105-0.247-0.191-0.398-0.272
	c-0.125-0.068-0.235-0.121-0.37-0.172c-0.314-0.122-0.591-0.204-0.922-0.271c-0.336-0.071-0.625-0.12-0.966-0.163
	c-0.674-0.085-1.246-0.131-1.925-0.156c-0.709-0.031-1.309-0.042-2.019-0.04H37.956c-0.261,0-0.472,0.203-0.472,0.453v8.149
	c0,0.164,0.089,0.306,0.222,0.387l2.89,2.221c0.081,0.063,0.182,0.1,0.294,0.1h8.699c0.258,0,0.469-0.201,0.469-0.45v-2.582h5.163"
	/>
<path fill="none" stroke="#1D1D1B" d="M46.949,21.53v2.753c0,0.155-0.132,0.283-0.294,0.283h-8.699
	c-0.162,0-0.293-0.128-0.293-0.283v-8.15c0-0.156,0.131-0.283,0.293-0.283h19.733c0.708-0.001,1.304,0.011,2.012,0.042
	c0.673,0.025,1.242,0.071,1.91,0.154c0.323,0.041,0.631,0.094,0.949,0.161c0.322,0.067,0.59,0.146,0.894,0.264
	c0.146,0.056,0.291,0.127,0.425,0.205c0.142,0.081,0.253,0.165,0.368,0.278c0.243,0.231,0.365,0.511,0.363,0.839v1.033
	c0.006,0.238-0.061,0.444-0.206,0.638c-0.114,0.153-0.289,0.288-0.461,0.376c-0.176,0.09-0.333,0.154-0.524,0.211
	c-0.152,0.047-0.301,0.086-0.458,0.119c0.28,0.061,0.483,0.113,0.762,0.221c0.173,0.065,0.31,0.139,0.457,0.247
	c0.158,0.113,0.264,0.243,0.342,0.419c0.063,0.145,0.09,0.314,0.088,0.471v2.756c0,0.155-0.131,0.283-0.293,0.283h-8.625
	c-0.162,0-0.292-0.128-0.292-0.283v-2.752L46.949,21.53"/>
<polyline fill="none" stroke="#1D1D1B" points="46.949,19.114 55.362,19.114 55.362,18.618 46.949,18.618 46.949,19.114 "/>
<path fill="none" stroke="#1D1D1B" d="M120.432,23.705v0.578c-0.002,0.161,0.087,0.305,0.221,0.383l2.89,2.224
	c0.081,0.062,0.184,0.1,0.294,0.1h8.774c0.259,0,0.47-0.203,0.47-0.45v-6.472c0-0.379-0.194-0.711-0.486-0.956
	c-0.031-0.028-0.063-0.055-0.096-0.08l-2.839-2.18c-0.127-0.106-0.251-0.194-0.397-0.272c-0.205-0.111-0.387-0.191-0.607-0.271
	c-0.243-0.088-0.454-0.149-0.708-0.21c-0.323-0.078-0.599-0.131-0.929-0.182c-0.614-0.095-1.14-0.149-1.762-0.184
	c-0.655-0.04-1.21-0.056-1.867-0.052h-14.537c-0.522-0.001-0.963,0.008-1.487,0.032c-0.425,0.019-0.786,0.044-1.211,0.086
	c-0.472,0.046-0.871,0.102-1.336,0.187c-0.229,0.041-0.461,0.094-0.685,0.154c-0.266,0.069-0.483,0.141-0.737,0.242
	c-0.189,0.074-0.344,0.15-0.518,0.256c-0.104,0.061-0.187,0.12-0.279,0.196c-0.302,0.252-0.508,0.587-0.508,0.979v6.469
	c0,0.164,0.089,0.306,0.222,0.387l2.891,2.221c0.079,0.063,0.183,0.1,0.293,0.1h8.737c0.26,0,0.469-0.201,0.469-0.45v-2.833h5.729"
	/>
<path fill="none" stroke="#1D1D1B" d="M111.594,21.28v3.003c0,0.155-0.132,0.283-0.294,0.283h-8.736
	c-0.161,0-0.294-0.128-0.294-0.283v-6.471c0.002-0.244,0.097-0.479,0.261-0.666c0.134-0.15,0.267-0.261,0.443-0.364
	c0.164-0.101,0.311-0.173,0.49-0.245c0.426-0.171,0.925-0.299,1.388-0.386c0.8-0.148,1.693-0.233,2.524-0.27
	c0.518-0.022,0.957-0.033,1.476-0.033h14.536c0.655-0.001,1.205,0.015,1.856,0.053c0.617,0.036,1.136,0.089,1.747,0.182
	c0.309,0.047,0.609,0.107,0.912,0.18c0.738,0.175,2.066,0.604,2.066,1.548v6.471c0,0.155-0.13,0.283-0.292,0.283h-8.774
	c-0.163,0-0.294-0.128-0.294-0.283V21.28H111.594"/>
<polyline fill="none" stroke="#1D1D1B" points="111.594,19.07 120.609,19.07 120.609,18.618 111.594,18.618 111.594,19.07 "/>
<path fill="none" stroke="#1D1D1B" d="M97.093,16.661c-0.151-0.131-0.33-0.241-0.526-0.331c-0.276-0.129-0.526-0.215-0.826-0.286
	c-0.304-0.072-0.559-0.122-0.865-0.167c-0.619-0.088-1.143-0.135-1.769-0.159c-0.646-0.03-1.193-0.042-1.844-0.04H69.986
	c-0.26,0-0.473,0.203-0.473,0.453v8.149c0,0.163,0.088,0.306,0.221,0.385l2.893,2.223c0.079,0.062,0.182,0.098,0.292,0.098H94.12
	c0.543,0.003,1.002-0.005,1.545-0.029c0.64-0.022,1.176-0.068,1.807-0.151c0.275-0.037,0.541-0.084,0.812-0.143
	c0.463-0.1,0.964-0.264,1.359-0.497c0.565-0.334,0.903-0.841,0.896-1.466v-1.14c0.001-0.131-0.011-0.256-0.04-0.384
	c-0.067-0.296-0.229-0.52-0.451-0.687l-0.352-0.273c0.077-0.033,0.15-0.071,0.228-0.114c0.384-0.215,0.62-0.546,0.616-0.958v-1.141
	c0.004-0.491-0.235-0.875-0.598-1.154L97.093,16.661"/>
<path fill="none" stroke="#1D1D1B" d="M91.188,24.566H69.986c-0.162,0-0.293-0.128-0.293-0.283v-8.15
	c0-0.156,0.131-0.283,0.293-0.283h21.276c0.646-0.001,1.192,0.011,1.837,0.041c0.618,0.026,1.14,0.072,1.748,0.157
	c0.29,0.04,0.566,0.095,0.848,0.163c0.289,0.07,0.527,0.151,0.795,0.274c0.526,0.243,0.946,0.657,0.941,1.264v1.141
	c0.003,0.351-0.203,0.627-0.529,0.811c-0.128,0.075-0.243,0.126-0.382,0.177c-0.122,0.046-0.229,0.082-0.355,0.12
	c0.534,0.146,1.096,0.372,1.229,0.962c0.026,0.114,0.038,0.227,0.038,0.346v1.141c0.005,0.566-0.302,1.019-0.814,1.323
	c-0.38,0.223-0.863,0.381-1.305,0.476c-0.268,0.058-0.528,0.104-0.797,0.14c-0.626,0.083-1.158,0.128-1.791,0.15
	C92.185,24.557,91.729,24.566,91.188,24.566"/>
<polyline fill="none" stroke="#1D1D1B" points="79.017,21.774 88.146,21.774 88.146,21.28 79.017,21.28 79.017,21.774 "/>
<polyline fill="none" stroke="#1D1D1B" points="79.017,19.07 88.146,19.07 88.146,18.618 79.017,18.618 79.017,19.07 "/>
<path fill="none" stroke="#1D1D1B" d="M13.225,24.672l2.885,2.218c0.087,0.066,0.181,0.1,0.292,0.1h9.754
	c0.112,0,0.208-0.033,0.295-0.101l10.507-8.149c0.201-0.158,0.232-0.442,0.07-0.634c-0.023-0.027-0.049-0.053-0.076-0.074
	l-2.888-2.22c-0.088-0.088-0.203-0.134-0.335-0.132h-9.113c-0.12-0.002-0.223,0.035-0.311,0.112l-5.201,4.367
	c-0.217,0.184-0.399,0.354-0.583,0.549l-3.166-2.659l-0.018-0.014l-2.87-2.207l-0.042-0.036c-0.091-0.075-0.193-0.113-0.312-0.112
	h-9.15c-0.261,0-0.473,0.202-0.473,0.453c-0.002,0.143,0.059,0.264,0.176,0.353l10.509,8.151
	C13.191,24.65,13.207,24.662,13.225,24.672"/>
<path fill="none" stroke="#1D1D1B" d="M18.365,21.144c0.277-0.325,0.533-0.581,0.861-0.857h0l5.197-4.364
	c0.057-0.048,0.119-0.071,0.193-0.071h9.113c0.092,0,0.171,0.037,0.229,0.106c0.102,0.121,0.083,0.298-0.044,0.396l-10.507,8.149
	c-0.054,0.042-0.114,0.064-0.183,0.064H13.47c-0.071,0-0.13-0.022-0.185-0.064L2.777,16.353c-0.07-0.056-0.108-0.131-0.108-0.22
	c0-0.156,0.13-0.282,0.292-0.282h9.151c0.075,0,0.138,0.023,0.193,0.071l5.197,4.364h0.002
	C17.832,20.563,18.087,20.818,18.365,21.144"/>
</svg>
